<mxfile modified="2022-05-04T22:51:20.555Z" host="app.diagrams.net" agent="5.0 (Windows NT 10.0; Win64; x64) AppleWebKit/537.36 (KHTML, like Gecko) Chrome/100.0.4896.127 Safari/537.36 Edg/100.0.1185.50" etag="bsG3Ezx9gjJvDTPn0CVj" compressed="false" version="17.5.0" type="google">
  <diagram id="t-I1t3wS2QwQ-FymQb5w" name="Deployment/Requirements">
    <mxGraphModel grid="1" page="1" gridSize="10" guides="1" tooltips="1" connect="1" arrows="1" fold="1" pageScale="1" pageWidth="850" pageHeight="1100" math="0" shadow="0">
      <root>
        <mxCell id="UGPhzTacUbEv0hnqcAEO-0" />
        <mxCell id="arTIJLTiI9J5-0zWeaxv-19" value="Notes" parent="UGPhzTacUbEv0hnqcAEO-0" />
        <mxCell id="I8mwIaXro43n_6qtm9q3-5" value="Adhere to Convention over Configuration design Principle. (and the least number of secrets to secure, and limit access to)." style="shape=note;whiteSpace=wrap;html=1;size=14;verticalAlign=top;align=left;spacingTop=-6;strokeColor=#999999;strokeWidth=1;fillColor=none;fontFamily=Helvetica;fontSize=11;fontColor=#666666;spacingRight=16;" vertex="1" parent="arTIJLTiI9J5-0zWeaxv-19">
          <mxGeometry x="390" y="300" width="290" height="40" as="geometry" />
        </mxCell>
        <mxCell id="I8mwIaXro43n_6qtm9q3-7" value="The greatest Asset and greatest Liability is the workforce with access to systems and integration configuration settings." style="shape=note;whiteSpace=wrap;html=1;size=14;verticalAlign=top;align=left;spacingTop=-6;strokeColor=#999999;strokeWidth=1;fillColor=none;fontFamily=Helvetica;fontSize=11;fontColor=#666666;spacingRight=16;" vertex="1" parent="arTIJLTiI9J5-0zWeaxv-19">
          <mxGeometry x="390" y="380" width="290" height="40" as="geometry" />
        </mxCell>
        <mxCell id="I8mwIaXro43n_6qtm9q3-8" value="The greatest Asset and greatest Liability is the workforce with access to systems and integration configuration settings." style="shape=note;whiteSpace=wrap;html=1;size=14;verticalAlign=top;align=left;spacingTop=-6;strokeColor=#999999;strokeWidth=1;fillColor=none;fontFamily=Helvetica;fontSize=11;fontColor=#666666;spacingRight=16;" vertex="1" parent="arTIJLTiI9J5-0zWeaxv-19">
          <mxGeometry x="390" y="340" width="290" height="40" as="geometry" />
        </mxCell>
        <mxCell id="I8mwIaXro43n_6qtm9q3-9" value="Define the infrastructure declaratively (eg: not via sequential commands)in such a way that the Pipeline can create new environments per branch, as required." style="shape=note;whiteSpace=wrap;html=1;size=14;verticalAlign=top;align=left;spacingTop=-6;strokeColor=#999999;strokeWidth=1;fillColor=none;fontFamily=Helvetica;fontSize=11;fontColor=#666666;spacingRight=16;" vertex="1" parent="arTIJLTiI9J5-0zWeaxv-19">
          <mxGeometry x="390" y="220" width="290" height="40" as="geometry" />
        </mxCell>
        <mxCell id="arTIJLTiI9J5-0zWeaxv-4" value="Resource Definitions available on the web are designed for simplicity and/or learning purposes. Not for meeting accreditable stringent secure best practices." style="shape=note;whiteSpace=wrap;html=1;size=14;verticalAlign=top;align=left;spacingTop=-6;strokeColor=#999999;strokeWidth=1;fillColor=none;fontFamily=Helvetica;fontSize=11;fontColor=#666666;spacingRight=16;" vertex="1" parent="arTIJLTiI9J5-0zWeaxv-19">
          <mxGeometry x="390" y="260" width="290" height="40" as="geometry" />
        </mxCell>
        <mxCell id="arTIJLTiI9J5-0zWeaxv-6" value="Define common patterns of (secure) resource assemblies (eg: web service, database, db firewall) that can be reused with few variables." style="shape=note;whiteSpace=wrap;html=1;size=14;verticalAlign=top;align=left;spacingTop=-6;strokeColor=#999999;strokeWidth=1;fillColor=none;fontFamily=Helvetica;fontSize=11;fontColor=#666666;spacingRight=16;" vertex="1" parent="arTIJLTiI9J5-0zWeaxv-19">
          <mxGeometry x="390" y="460" width="290" height="40" as="geometry" />
        </mxCell>
        <mxCell id="arTIJLTiI9J5-0zWeaxv-9" value="Avoid Fads, Plan for technologies that will be actively maintained current for the Service Lifespan." style="shape=note;whiteSpace=wrap;html=1;size=14;verticalAlign=top;align=left;spacingTop=-6;strokeColor=#999999;strokeWidth=1;fillColor=none;fontFamily=Helvetica;fontSize=11;fontColor=#666666;spacingRight=16;" vertex="1" parent="arTIJLTiI9J5-0zWeaxv-19">
          <mxGeometry x="390" y="540" width="290" height="40" as="geometry" />
        </mxCell>
        <mxCell id="arTIJLTiI9J5-0zWeaxv-11" value="Developers leave. Organisation staff stays. Choose a technology in line with the Organisation&#39;s capability plans." style="shape=note;whiteSpace=wrap;html=1;size=14;verticalAlign=top;align=left;spacingTop=-6;strokeColor=#999999;strokeWidth=1;fillColor=none;fontFamily=Helvetica;fontSize=11;fontColor=#666666;spacingRight=16;" vertex="1" parent="arTIJLTiI9J5-0zWeaxv-19">
          <mxGeometry x="390" y="500" width="290" height="40" as="geometry" />
        </mxCell>
        <mxCell id="arTIJLTiI9J5-0zWeaxv-14" value="Use the pipeline to orchestrate Units of Work across various technologies (don&#39;t use micro steps and make an unwieldy pipeline)." style="shape=note;whiteSpace=wrap;html=1;size=14;verticalAlign=top;align=left;spacingTop=-6;strokeColor=#999999;strokeWidth=1;fillColor=none;fontFamily=Helvetica;fontSize=11;fontColor=#666666;spacingRight=16;" vertex="1" parent="arTIJLTiI9J5-0zWeaxv-19">
          <mxGeometry x="390" y="580" width="290" height="40" as="geometry" />
        </mxCell>
        <mxCell id="arTIJLTiI9J5-0zWeaxv-16" value="Turn off steps (eg: Testing) you don&#39;t need in different environments (eg: Prod). Otherwise you have to hold environment secrets to push to the app&#39;s configuration." style="shape=note;whiteSpace=wrap;html=1;size=14;verticalAlign=top;align=left;spacingTop=-6;strokeColor=#999999;strokeWidth=1;fillColor=none;fontFamily=Helvetica;fontSize=11;fontColor=#666666;spacingRight=16;" vertex="1" parent="arTIJLTiI9J5-0zWeaxv-19">
          <mxGeometry x="390" y="620" width="290" height="40" as="geometry" />
        </mxCell>
        <mxCell id="0BPHA9FhPc_w_WwuHAUj-0" value="Rely on the target platform knowing it is state, instead of relying on 3rd party tracking files (nb: declarative approach works natively compared to procedural)." style="shape=note;whiteSpace=wrap;html=1;size=14;verticalAlign=top;align=left;spacingTop=-6;strokeColor=#999999;strokeWidth=1;fillColor=none;fontFamily=Helvetica;fontSize=11;fontColor=#666666;spacingRight=16;" vertex="1" parent="arTIJLTiI9J5-0zWeaxv-19">
          <mxGeometry x="390" y="420" width="290" height="40" as="geometry" />
        </mxCell>
        <mxCell id="wDjBuQB9cu0DyF9Gfp45-0" value="MUST NOT save integration Secrets in Service&#39;s&amp;nbsp;Configuration file" style="rounded=0;whiteSpace=wrap;html=1;fontFamily=Helvetica;fontSize=12;fontColor=#000000;align=left;strokeColor=#000000;fillColor=#ffffff;" vertex="1" parent="arTIJLTiI9J5-0zWeaxv-19">
          <mxGeometry x="170" y="660" width="220" height="40" as="geometry" />
        </mxCell>
        <mxCell id="wDjBuQB9cu0DyF9Gfp45-1" value="First, try to use integrated security so Passwords are not sent across any wire. What secrets are left, use a secure data store (keyvault, etc.)" style="shape=note;whiteSpace=wrap;html=1;size=14;verticalAlign=top;align=left;spacingTop=-6;strokeColor=#999999;strokeWidth=1;fillColor=none;fontFamily=Helvetica;fontSize=12;fontColor=#666666;spacingRight=16;" vertex="1" parent="arTIJLTiI9J5-0zWeaxv-19">
          <mxGeometry x="390" y="660" width="290" height="40" as="geometry" />
        </mxCell>
        <mxCell id="wDjBuQB9cu0DyF9Gfp45-2" value="MUST NOT use ConnStrings with cleartext UserName/Password&amp;nbsp;" style="rounded=0;whiteSpace=wrap;html=1;fontFamily=Helvetica;fontSize=12;fontColor=#000000;align=left;strokeColor=#000000;fillColor=#ffffff;" vertex="1" parent="arTIJLTiI9J5-0zWeaxv-19">
          <mxGeometry x="170" y="700" width="220" height="40" as="geometry" />
        </mxCell>
        <mxCell id="wDjBuQB9cu0DyF9Gfp45-3" value="MUST NOT Pass OAuth keys over the wire." style="rounded=0;whiteSpace=wrap;html=1;fontFamily=Helvetica;fontSize=12;fontColor=#000000;align=left;strokeColor=#000000;fillColor=#ffffff;" vertex="1" parent="arTIJLTiI9J5-0zWeaxv-19">
          <mxGeometry x="170" y="740" width="220" height="40" as="geometry" />
        </mxCell>
        <mxCell id="wDjBuQB9cu0DyF9Gfp45-4" value="Consider using MSI where available." style="shape=note;whiteSpace=wrap;html=1;size=14;verticalAlign=top;align=left;spacingTop=-6;strokeColor=#999999;strokeWidth=1;fillColor=none;fontFamily=Helvetica;fontSize=12;fontColor=#666666;spacingRight=16;" vertex="1" parent="arTIJLTiI9J5-0zWeaxv-19">
          <mxGeometry x="390" y="700" width="290" height="40" as="geometry" />
        </mxCell>
        <mxCell id="wDjBuQB9cu0DyF9Gfp45-5" value="SLightly better than Basic, sending OAuth Keys, even if over HTTPS is worse than Azure&#39;s AAD/MSI&amp;nbsp; authentication, or Amazon equivalent." style="shape=note;whiteSpace=wrap;html=1;size=14;verticalAlign=top;align=left;spacingTop=-6;strokeColor=#999999;strokeWidth=1;fillColor=none;fontFamily=Helvetica;fontSize=12;fontColor=#666666;spacingRight=16;" vertex="1" parent="arTIJLTiI9J5-0zWeaxv-19">
          <mxGeometry x="390" y="740" width="290" height="40" as="geometry" />
        </mxCell>
        <mxCell id="wDjBuQB9cu0DyF9Gfp45-6" value="MUST NOT Pass secrets over unencrypted channels" style="rounded=0;whiteSpace=wrap;html=1;fontFamily=Helvetica;fontSize=12;fontColor=#000000;align=left;strokeColor=#000000;fillColor=#ffffff;" vertex="1" parent="arTIJLTiI9J5-0zWeaxv-19">
          <mxGeometry x="170" y="780" width="220" height="40" as="geometry" />
        </mxCell>
        <mxCell id="wDjBuQB9cu0DyF9Gfp45-7" value="There is absolutely no excuse to secure channels between all components. Use HTTPS. Use &#39;secure&#39; on connection strings." style="shape=note;whiteSpace=wrap;html=1;size=14;verticalAlign=top;align=left;spacingTop=-6;strokeColor=#999999;strokeWidth=1;fillColor=none;fontFamily=Helvetica;fontSize=12;fontColor=#666666;spacingRight=16;" vertex="1" parent="arTIJLTiI9J5-0zWeaxv-19">
          <mxGeometry x="390" y="780" width="290" height="40" as="geometry" />
        </mxCell>
        <mxCell id="wDjBuQB9cu0DyF9Gfp45-8" value="MUST NOT Use an Excel Sheet to keep secrets" style="rounded=0;whiteSpace=wrap;html=1;fontFamily=Helvetica;fontSize=12;fontColor=#000000;align=left;strokeColor=#000000;fillColor=#ffffff;" vertex="1" parent="arTIJLTiI9J5-0zWeaxv-19">
          <mxGeometry x="170" y="820" width="220" height="40" as="geometry" />
        </mxCell>
        <mxCell id="wDjBuQB9cu0DyF9Gfp45-9" value="Secrets would be one email attachment away from disclosure.&amp;nbsp; It probably indicates that Convention over Configuration Principle is not followed.." style="shape=note;whiteSpace=wrap;html=1;size=14;verticalAlign=top;align=left;spacingTop=-6;strokeColor=#999999;strokeWidth=1;fillColor=none;fontFamily=Helvetica;fontSize=12;fontColor=#666666;spacingRight=16;" vertex="1" parent="arTIJLTiI9J5-0zWeaxv-19">
          <mxGeometry x="390" y="820" width="290" height="40" as="geometry" />
        </mxCell>
        <mxCell id="wDjBuQB9cu0DyF9Gfp45-10" value="MUST NOT Purchase and use a cert for a year plus." style="rounded=0;whiteSpace=wrap;html=1;fontFamily=Helvetica;fontSize=12;fontColor=#000000;align=left;strokeColor=#000000;fillColor=#ffffff;" vertex="1" parent="arTIJLTiI9J5-0zWeaxv-19">
          <mxGeometry x="170" y="860" width="220" height="40" as="geometry" />
        </mxCell>
        <mxCell id="wDjBuQB9cu0DyF9Gfp45-11" value="Best practice is to use certs for a short time (max 90 days) and redeploy idempotently a new environment, including an updated cert." style="shape=note;whiteSpace=wrap;html=1;size=14;verticalAlign=top;align=left;spacingTop=-6;strokeColor=#999999;strokeWidth=1;fillColor=none;fontFamily=Helvetica;fontSize=12;fontColor=#666666;spacingRight=16;" vertex="1" parent="arTIJLTiI9J5-0zWeaxv-19">
          <mxGeometry x="390" y="860" width="290" height="40" as="geometry" />
        </mxCell>
        <mxCell id="wDjBuQB9cu0DyF9Gfp45-12" value="MUST NOT Blow out your environment every time you redeploy." style="rounded=0;whiteSpace=wrap;html=1;fontFamily=Helvetica;fontSize=12;fontColor=#000000;align=left;strokeColor=#000000;fillColor=#ffffff;" vertex="1" parent="arTIJLTiI9J5-0zWeaxv-19">
          <mxGeometry x="170" y="900" width="220" height="40" as="geometry" />
        </mxCell>
        <mxCell id="wDjBuQB9cu0DyF9Gfp45-13" value="Idempotency ensures the system is down for the least duration.&amp;nbsp;" style="shape=note;whiteSpace=wrap;html=1;size=14;verticalAlign=top;align=left;spacingTop=-6;strokeColor=#999999;strokeWidth=1;fillColor=none;fontFamily=Helvetica;fontSize=12;fontColor=#666666;spacingRight=16;" vertex="1" parent="arTIJLTiI9J5-0zWeaxv-19">
          <mxGeometry x="390" y="900" width="290" height="40" as="geometry" />
        </mxCell>
        <mxCell id="arTIJLTiI9J5-0zWeaxv-18" value="Diagram" parent="UGPhzTacUbEv0hnqcAEO-0" />
        <mxCell id="I8mwIaXro43n_6qtm9q3-0" value="Create Secure Environments" style="rounded=0;whiteSpace=wrap;html=1;fontFamily=Helvetica;fontSize=12;fontColor=#333333;align=left;strokeColor=#666666;fillColor=#f5f5f5;strokeWidth=2;horizontal=0;" vertex="1" parent="arTIJLTiI9J5-0zWeaxv-18">
          <mxGeometry x="120" y="260" width="50" height="160" as="geometry" />
        </mxCell>
        <mxCell id="I8mwIaXro43n_6qtm9q3-1" value="Environment as Declarative Code" style="rounded=0;whiteSpace=wrap;html=1;fontFamily=Helvetica;fontSize=12;fontColor=#000000;align=left;strokeColor=#000000;fillColor=#ffffff;" vertex="1" parent="arTIJLTiI9J5-0zWeaxv-18">
          <mxGeometry x="170" y="220" width="220" height="40" as="geometry" />
        </mxCell>
        <mxCell id="I8mwIaXro43n_6qtm9q3-2" value="&lt;p style=&quot;line-height: 90%; font-size: 12px;&quot;&gt;Environments created by Pipeline Automation&lt;/p&gt;" style="rounded=0;whiteSpace=wrap;html=1;fontFamily=Helvetica;fontSize=12;fontColor=#333333;align=left;strokeColor=#666666;fillColor=#f5f5f5;strokeWidth=2;horizontal=0;" vertex="1" parent="arTIJLTiI9J5-0zWeaxv-18">
          <mxGeometry x="120" y="180" width="50" height="80" as="geometry" />
        </mxCell>
        <mxCell id="I8mwIaXro43n_6qtm9q3-3" value="Require the least number of integration secretes" style="rounded=0;whiteSpace=wrap;html=1;fontFamily=Helvetica;fontSize=12;fontColor=#000000;align=left;strokeColor=#000000;fillColor=#ffffff;" vertex="1" parent="arTIJLTiI9J5-0zWeaxv-18">
          <mxGeometry x="170" y="300" width="220" height="40" as="geometry" />
        </mxCell>
        <mxCell id="I8mwIaXro43n_6qtm9q3-4" value="Manage secrets securely" style="rounded=0;whiteSpace=wrap;html=1;fontFamily=Helvetica;fontSize=12;fontColor=#000000;align=left;strokeColor=#000000;fillColor=#ffffff;" vertex="1" parent="arTIJLTiI9J5-0zWeaxv-18">
          <mxGeometry x="170" y="340" width="220" height="40" as="geometry" />
        </mxCell>
        <mxCell id="I8mwIaXro43n_6qtm9q3-6" value="Provide access to Secrets to the least number of people." style="rounded=0;whiteSpace=wrap;html=1;fontFamily=Helvetica;fontSize=12;fontColor=#000000;align=left;strokeColor=#000000;fillColor=#ffffff;" vertex="1" parent="arTIJLTiI9J5-0zWeaxv-18">
          <mxGeometry x="170" y="380" width="220" height="40" as="geometry" />
        </mxCell>
        <mxCell id="arTIJLTiI9J5-0zWeaxv-3" value="Develop resources from secured resource definitions" style="rounded=0;whiteSpace=wrap;html=1;fontFamily=Helvetica;fontSize=12;fontColor=#000000;align=left;strokeColor=#000000;fillColor=#ffffff;" vertex="1" parent="arTIJLTiI9J5-0zWeaxv-18">
          <mxGeometry x="170" y="260" width="220" height="40" as="geometry" />
        </mxCell>
        <mxCell id="arTIJLTiI9J5-0zWeaxv-5" value="Develop resources from resource sets" style="rounded=0;whiteSpace=wrap;html=1;fontFamily=Helvetica;fontSize=12;fontColor=#000000;align=left;strokeColor=#000000;fillColor=#ffffff;" vertex="1" parent="arTIJLTiI9J5-0zWeaxv-18">
          <mxGeometry x="170" y="460" width="220" height="40" as="geometry" />
        </mxCell>
        <mxCell id="arTIJLTiI9J5-0zWeaxv-7" value="Create Long term Maintainable Environments" style="rounded=0;whiteSpace=wrap;html=1;fontFamily=Helvetica;fontSize=12;fontColor=#333333;align=left;strokeColor=#666666;fillColor=#f5f5f5;strokeWidth=2;horizontal=0;" vertex="1" parent="arTIJLTiI9J5-0zWeaxv-18">
          <mxGeometry x="120" y="420" width="50" height="240" as="geometry" />
        </mxCell>
        <mxCell id="arTIJLTiI9J5-0zWeaxv-8" value="Consider longevity when choosing approaches" style="rounded=0;whiteSpace=wrap;html=1;fontFamily=Helvetica;fontSize=12;fontColor=#000000;align=left;strokeColor=#000000;fillColor=#ffffff;" vertex="1" parent="arTIJLTiI9J5-0zWeaxv-18">
          <mxGeometry x="170" y="540" width="220" height="40" as="geometry" />
        </mxCell>
        <mxCell id="arTIJLTiI9J5-0zWeaxv-10" value="Choose approaches that are or will be maintained by the organisation." style="rounded=0;whiteSpace=wrap;html=1;fontFamily=Helvetica;fontSize=12;fontColor=#000000;align=left;strokeColor=#000000;fillColor=#ffffff;" vertex="1" parent="arTIJLTiI9J5-0zWeaxv-18">
          <mxGeometry x="170" y="500" width="220" height="40" as="geometry" />
        </mxCell>
        <mxCell id="arTIJLTiI9J5-0zWeaxv-13" value="Avoid splitting deployment pipeline instructions across languages &amp;amp; technologies" style="rounded=0;whiteSpace=wrap;html=1;fontFamily=Helvetica;fontSize=12;fontColor=#000000;align=left;strokeColor=#000000;fillColor=#ffffff;" vertex="1" parent="arTIJLTiI9J5-0zWeaxv-18">
          <mxGeometry x="170" y="580" width="220" height="40" as="geometry" />
        </mxCell>
        <mxCell id="arTIJLTiI9J5-0zWeaxv-15" value="Use the same pipeline to deploy infrastructure, system, tests as code." style="rounded=0;whiteSpace=wrap;html=1;fontFamily=Helvetica;fontSize=12;fontColor=#000000;align=left;strokeColor=#000000;fillColor=#ffffff;" vertex="1" parent="arTIJLTiI9J5-0zWeaxv-18">
          <mxGeometry x="170" y="620" width="220" height="40" as="geometry" />
        </mxCell>
        <mxCell id="0BPHA9FhPc_w_WwuHAUj-1" value="Environment as &lt;i&gt;Declarative &lt;/i&gt;Code" style="rounded=0;whiteSpace=wrap;html=1;fontFamily=Helvetica;fontSize=12;fontColor=#000000;align=left;strokeColor=#000000;fillColor=#ffffff;" vertex="1" parent="arTIJLTiI9J5-0zWeaxv-18">
          <mxGeometry x="170" y="420" width="220" height="40" as="geometry" />
        </mxCell>
        <mxCell id="kuL5raz1BDCAn6rcCcmE-0" value="Statement" style="rounded=0;whiteSpace=wrap;html=1;fontFamily=Helvetica;fontSize=12;fontColor=#333333;align=left;strokeColor=#666666;fillColor=#f5f5f5;strokeWidth=2;" vertex="1" parent="arTIJLTiI9J5-0zWeaxv-18">
          <mxGeometry x="170" y="160" width="220" height="20" as="geometry" />
        </mxCell>
        <mxCell id="kuL5raz1BDCAn6rcCcmE-1" value="Rationale" style="rounded=0;whiteSpace=wrap;html=1;fontFamily=Helvetica;fontSize=12;fontColor=#333333;align=left;strokeColor=#666666;fillColor=#f5f5f5;strokeWidth=2;" vertex="1" parent="arTIJLTiI9J5-0zWeaxv-18">
          <mxGeometry x="380" y="160" width="300" height="20" as="geometry" />
        </mxCell>
        <mxCell id="kuL5raz1BDCAn6rcCcmE-2" value="DI" style="rounded=0;whiteSpace=wrap;html=1;fontFamily=Helvetica;fontSize=12;fontColor=#333333;align=left;strokeColor=#666666;fillColor=#f5f5f5;strokeWidth=2;" vertex="1" parent="arTIJLTiI9J5-0zWeaxv-18">
          <mxGeometry x="120" y="160" width="50" height="20" as="geometry" />
        </mxCell>
        <mxCell id="wDjBuQB9cu0DyF9Gfp45-14" value="PROHIBITIONS" style="rounded=0;whiteSpace=wrap;html=1;fontFamily=Helvetica;fontSize=12;fontColor=#333333;align=left;strokeColor=#666666;fillColor=#f5f5f5;strokeWidth=2;horizontal=0;" vertex="1" parent="arTIJLTiI9J5-0zWeaxv-18">
          <mxGeometry x="120" y="660" width="50" height="280" as="geometry" />
        </mxCell>
        <mxCell id="z4Z4xiXuclEtKeiuhj68-0" value="Title/Diagram" parent="UGPhzTacUbEv0hnqcAEO-0" />
        <mxCell id="z4Z4xiXuclEtKeiuhj68-1" value="&lt;font style=&quot;font-size: 12px&quot;&gt;Diagram: Base System Logical Module -&amp;nbsp;Deployment - Considerations&lt;/font&gt;" style="text;strokeColor=none;fillColor=none;html=1;fontSize=24;fontStyle=2;verticalAlign=middle;align=left;shadow=0;glass=0;comic=0;opacity=30;fontColor=#808080;" vertex="1" parent="z4Z4xiXuclEtKeiuhj68-0">
          <mxGeometry x="120" y="940" width="560" height="40" as="geometry" />
        </mxCell>
        <mxCell id="arTIJLTiI9J5-0zWeaxv-17" value="Title/Page" visible="0" parent="UGPhzTacUbEv0hnqcAEO-0" />
        <mxCell id="arTIJLTiI9J5-0zWeaxv-0" value="" style="group;fontSize=10;" vertex="1" connectable="0" parent="arTIJLTiI9J5-0zWeaxv-17">
          <mxGeometry x="120" y="120" width="560" height="45" as="geometry" />
        </mxCell>
        <mxCell id="arTIJLTiI9J5-0zWeaxv-1" value="&lt;font style=&quot;font-size: 12px&quot;&gt;Base Logical Module -&amp;nbsp;Deployment - Considerations&lt;/font&gt;" style="text;strokeColor=none;fillColor=none;html=1;fontSize=24;fontStyle=1;verticalAlign=middle;align=left;shadow=0;glass=0;comic=0;opacity=30;fontColor=#808080;" vertex="1" parent="arTIJLTiI9J5-0zWeaxv-0">
          <mxGeometry width="560" height="40" as="geometry" />
        </mxCell>
        <mxCell id="arTIJLTiI9J5-0zWeaxv-2" value="" style="line;strokeWidth=2;html=1;shadow=0;glass=0;comic=0;fillColor=none;fontSize=10;fontColor=#CCCCCC;labelBackgroundColor=none;strokeColor=#CCCCCC;" vertex="1" parent="arTIJLTiI9J5-0zWeaxv-0">
          <mxGeometry y="35" width="560" height="10" as="geometry" />
        </mxCell>
        <mxCell id="z4Z4xiXuclEtKeiuhj68-2" value="About" parent="UGPhzTacUbEv0hnqcAEO-0" />
      </root>
    </mxGraphModel>
  </diagram>
</mxfile>
